<?xml version="1.0" encoding="utf-8"?>
<!-- Generator: Adobe Illustrator 21.1.0, SVG Export Plug-In . SVG Version: 6.00 Build 0)  -->
<svg version="1.1" id="Layer_1" xmlns="http://www.w3.org/2000/svg" xmlns:xlink="http://www.w3.org/1999/xlink" x="0px" y="0px"
	 viewBox="0 0 152 172" style="enable-background:new 0 0 152 172;" xml:space="preserve">
<style type="text/css">
	.st0{fill:#D08159;}
	.st1{fill:#FFD4A3;stroke:#000000;stroke-miterlimit:10;}
	.st2{fill:#FFAA5E;stroke:#000000;stroke-miterlimit:10;}
	.st3{fill:#FFFFFF;}
	.st4{fill:#FFECD6;stroke:#000000;stroke-miterlimit:10;}
	.st5{fill:none;}
	.st6{fill:#231F20;}
	.st7{enable-background:new    ;}
	.st8{fill:#0AD3FF;stroke:#000000;stroke-miterlimit:10;}
	.st9{fill:#544E68;stroke:#000000;stroke-miterlimit:10;}
</style>
<path class="st0" d="M148.9,128.1c-0.1,0.1-0.1,0.1-0.1,0.2h-14.5c2.9-3.9,5.4-8.2,7.4-12.8l2,3.5L148.9,128.1z"/>
<path class="st0" d="M83.5,157.7l-2.1,3.5l-5.2,9h-0.3l-5.2-9l-2-3.5c1.3,0.1,2.7,0.2,4.1,0.3c0.5,0,0.9,0.1,1.4,0.1
	c0.6,0,1.2,0,1.9,0c0.6,0,1.3,0,1.9,0c0.3,0,0.7,0,1,0c0.1,0,0.1,0,0.2,0c0.1,0,0.1,0,0.2,0C80.8,157.9,82.2,157.8,83.5,157.7z"/>
<path class="st0" d="M17.6,128.3H3.4l-0.1-0.1l5.3-9.2l1.6-2.8l0.2-0.3C12.4,120.4,14.8,124.5,17.6,128.3z"/>
<path class="st0" d="M17.4,44.2c-2.7,3.8-5.2,7.9-7.1,12.2l-0.5-0.8l-1.3-2.3l-5.4-9.2L17.4,44.2L17.4,44.2z"/>
<path class="st0" d="M83.4,14.5c-1.8-0.2-3.6-0.3-5.4-0.3c-0.6,0-1.2,0-1.9,0s-1.3,0-1.9,0c-1.8,0-3.5,0.1-5.3,0.3l0.5-0.8l1.4-2.4
	l5.4-9.2l5.4,9.2l1.5,2.5l0,0L83.4,14.5z"/>
<path class="st0" d="M149,44.2l-5.3,9.2l-1.9,3.4l0,0c-2-4.5-4.4-8.7-7.3-12.6L149,44.2C149,44.2,149,44.2,149,44.2z"/>
<path class="st1" d="M147.6,82.2c-0.5-8.9-2.5-17.4-6-25.2c-2-4.5-4.5-8.9-7.4-12.9c-5.9-8.2-13.4-15.1-22.1-20.2l0,0l0,0l0,0
	c-8.6-5-18.3-8.3-28.7-9.4c-1.3-0.1-2.7-0.3-4.1-0.3c-0.5,0-0.9-0.1-1.3-0.1c-0.1,0-0.1,0-0.2,0c-0.5,0-1,0-1.5,0h-0.2
	c-0.6,0-1.2,0-1.9,0h-0.1c-0.6,0-1.3,0.1-1.9,0.1c-1.1,0.1-2.2,0.1-3.3,0.2l0,0l0,0c-10.2,0.9-19.9,4.1-28.4,8.9l0,0
	c-0.3,0.2-0.7,0.3-0.9,0.5C31,28.9,23.4,35.8,17.5,44c-2.7,3.8-5.2,7.9-7.1,12.2c-4,8.9-6.3,18.8-6.4,29.2v0.1c0,0.1,0,0.2,0,0.3
	c0,0.3,0,0.5,0,0.8c0.1,10.4,2.3,20.3,6.4,29.2l0,0c2,4.3,4.4,8.6,7.2,12.4c6,8.2,13.6,15.1,22.4,20.1c0.1,0.1,0.2,0.1,0.3,0.2l0,0
	c8.6,4.9,18.2,8,28.5,9c1.3,0.1,2.7,0.2,4.1,0.3c0.5,0,0.9,0.1,1.3,0.1c0.6,0,1.2,0,1.9,0c0.6,0,1.3,0,1.9,0c0.3,0,0.7,0,1-0.1
	c0.1,0,0.1,0,0.2,0c0.1,0,0.1,0,0.3,0c1.4-0.1,2.8-0.2,4.2-0.3c20.9-2.2,38.9-13.2,50.5-29.3c2.9-4,5.4-8.4,7.5-13
	c3-6.8,5-14.2,5.8-21.9c0-0.1,0-0.1,0-0.2c0-0.2,0.1-0.4,0.1-0.5c0-0.3,0.1-0.5,0.1-0.8v-0.1c0-0.2,0-0.3,0.1-0.5
	c0.1-0.5,0.1-1.1,0.1-1.7c0-0.1,0-0.1,0-0.3c0-0.3,0-0.6,0.1-0.9c0-0.2,0-0.4,0-0.6c0-0.1,0-0.3,0-0.4c0-0.4,0-0.8,0-1.1v-0.3l0,0
	C147.7,84.7,147.7,83.4,147.6,82.2z M140.5,86.2c0,8.6-1.7,16.9-4.7,24.3c-4.3-3.1-7.2-8.2-7.2-13.9c0-7.6,4.9-14,11.6-16.3
	C140.4,82.4,140.5,84.3,140.5,86.2z M34.9,42c1.5,0.1,5-0.1,6.3,0c-0.9-1.3-1.9-3.3-2.9-5.5c2.9,2.9,13.2,9.6,15.9,13.1
	c-0.7,0.4-1.3,1.2-1.3,2.1c0,0.1,0,0.1,0,0.2c-4.8-0.1-15.4-4.2-20.2-5c3.1-0.5,4.5-0.5,6.7-0.9C37.3,44.3,36.9,43.4,34.9,42z
	 M91.1,64.8c0.2,0.1,0.3,0.3,0.5,0.3c0.5,0.3,0.9,0.7,1.4,1.1l0,0l0,0c0.1,0.1,0.1,0.1,0.2,0.2c0,0,0.1,0,0.1,0.1l0.1,0.1l0.1,0.1
	c0.1,0.1,0.1,0.1,0.2,0.1l0,0l0,0c0.2,0.2,0.5,0.4,0.7,0.6c0.3,0.3,0.5,0.5,0.9,0.8c0.1,0.1,0.3,0.3,0.4,0.4
	c0.1,0.1,0.1,0.1,0.1,0.1c0.2,0.2,0.3,0.3,0.5,0.5c0.2,0.3,0.5,0.5,0.7,0.7c0.2,0.2,0.3,0.4,0.5,0.6c0.3,0.5,0.7,0.9,1.1,1.5
	c0.2,0.3,0.4,0.6,0.6,0.9c0.1,0.3,0.3,0.5,0.5,0.7c0.2,0.3,0.4,0.7,0.5,1c0.1,0.3,0.3,0.6,0.5,0.9c0.1,0.3,0.3,0.6,0.4,0.9
	c0.4,0.9,0.7,1.9,1.1,2.8c0.1,0.3,0.2,0.6,0.3,0.9c0.1,0.3,0.1,0.5,0.2,0.8c0,0.1,0.1,0.3,0.1,0.4c0.3,1.1,0.5,2.3,0.5,3.5
	c0,0.1,0,0.3,0,0.4c0,0.2,0,0.3,0,0.5c0,0.2,0,0.5,0,0.7c0,0.4,0,0.8,0,1.2c0,0.1,0,0.3,0,0.5l0,0c-0.3,0.1-0.6,0.1-0.9,0.1l0,0
	c-4.9-8.4-9.8-16.8-14.6-25.2c0-0.1,0.1-0.1,0.1-0.1c0.3,0.1,0.7,0.3,1,0.5c0.4,0.2,0.8,0.4,1.2,0.7c0.2,0.1,0.5,0.3,0.7,0.4
	C90.8,64.6,91,64.7,91.1,64.8z M69.5,113.1c-0.2-0.1-0.4-0.1-0.5-0.2c-0.7-0.2-1.5-0.5-2.3-0.8c-0.3-0.1-0.7-0.3-1-0.4
	c-1.2-0.5-2.3-1.1-3.1-1.6c-0.3-0.2-0.5-0.3-0.7-0.5c-0.1-0.1-0.3-0.2-0.3-0.3c-0.1-0.1-0.3-0.2-0.3-0.3c2.5,0,5.2,0,7.7,0
	c2.5,0,5.2,0,7.7,0c5.2,0,10.2,0,15.4,0c-0.8,1.2-6.7,3.9-9.9,4.5c-3.6,0.7-7.3,0.7-10.9,0c-0.4-0.1-0.7-0.1-1.1-0.3
	C69.8,113.2,69.6,113.1,69.5,113.1z M65,63.6c-2.8,4.8-5.6,9.7-8.4,14.5c-0.9,1.6-1.9,3.2-2.8,4.9C53.2,84,52.6,85,52,86.1
	c-0.6,1.1-1.2,2.1-1.8,3.1c-0.1,0.1-0.2,0.3-0.3,0.4C48.6,79.8,54.3,68,65.4,63C65.2,63.2,65.1,63.4,65,63.6z M45.2,101
	c1.1,2.3,2.3,4.4,3.7,6.5h-7.5C42.8,105.2,44,103.2,45.2,101z M48.8,95.5c0-0.1,0-0.1-0.1-0.2c0-0.1,0-0.3,0-0.3
	c0.4,0,0.9-0.1,1.3-0.1c0.2,0,0.5,0,0.7-0.1c0.1,0.3,0.1,0.5,0.2,0.7c0,0,0,0.1,0,0.1c0,0.1,0.1,0.1,0.1,0.2c0,0.1,0,0.1,0.1,0.1
	c0.1,0.3,0.2,0.5,0.3,0.8c0.1,0.2,0.1,0.4,0.3,0.7c0,0.1,0,0.1,0.1,0.1l0,0c0.1,0.1,0.1,0.3,0.2,0.5c0.1,0.3,0.3,0.5,0.4,0.9
	c0.1,0.3,0.3,0.5,0.4,0.9c0.3,0.6,0.7,1.2,1,1.7l0.1,0.1c0.2,0.3,0.4,0.6,0.6,0.9c0.1,0.3,0.3,0.5,0.5,0.7c0.1,0.2,0.2,0.3,0.3,0.5
	c0.3,0.3,0.5,0.7,0.8,1c0.1,0.1,0.2,0.3,0.3,0.4c0.4,0.5,0.8,0.9,1.2,1.3c0.1,0.1,0.1,0.1,0.2,0.2c0.3,0.3,0.5,0.5,0.7,0.7
	c-0.7,0-1.3,0-2,0c-0.1,0-0.3,0-0.5,0h-0.1c0,0-0.1,0-0.1-0.1c0,0-0.1,0-0.1-0.1c-0.1-0.1-0.1-0.1-0.1-0.1c-0.1-0.1-0.1-0.1-0.1-0.1
	c-1.6-1.7-3-3.5-4.1-5.6C50.2,99.6,49.4,97.6,48.8,95.5z M102.9,92.6c0.1,0.2,0.3,0.3,0.3,0.5c0.3,0.4,0.5,0.9,0.7,1.3
	c0.3,0.3,0.3,0.7,0.1,1.1c-1.2,3.9-3.1,7.5-5.8,10.6c-0.3,0.4-0.7,0.8-1.1,1.2c-0.1,0.1-0.3,0.2-0.4,0.3c-0.7,0-1.5,0-2.2,0
	c0,0-0.1-0.1-0.1-0.1C98.8,103.4,101.7,98.5,102.9,92.6z M105,105.8c0.3-0.5,0.7-1.1,1-1.6c0.7-1.1,1.2-2.2,1.7-3.4
	c1.3,2.3,2.5,4.4,3.9,6.6h-7.7C104.2,106.9,104.6,106.4,105,105.8z M67.9,61.8c0.5-0.9,0.9-1.7,1.4-2.4l0.1-0.1l0.1-0.1
	c0.1-0.1,0.1-0.1,0.2-0.1c0.1,0,0.1-0.1,0.1-0.1h0.1c2.2-0.5,4.5-0.7,6.8-0.7c2.1,0,4.2,0.3,6.3,0.7c0.5,0.1,0.8,0.3,1,0.7
	c0.3,0.6,0.7,1.2,1.1,1.9C79.3,60,73.7,60,67.9,61.8z M78.3,53.3c-0.3,0-0.5,0-0.7,0c-0.1,0-0.3,0-0.4,0c-1.4-0.1-2.8,0-4.2,0.2
	c0-0.1,0-0.1,0.1-0.2c0.1-0.2,0.3-0.5,0.5-1c0.1-0.1,0.1-0.3,0.2-0.4c0.1-0.1,0.1-0.1,0.1-0.2c0.1-0.1,0.1-0.1,0.1-0.3
	c0.1-0.1,0.1-0.1,0.1-0.3c0.1-0.2,0.2-0.3,0.3-0.5c0.1-0.1,0.1-0.3,0.2-0.4c0.1-0.2,0.3-0.5,0.4-0.7c0.1-0.1,0.1-0.2,0.2-0.3
	c0.1-0.1,0.1-0.2,0.2-0.3c0.2-0.3,0.3-0.6,0.5-0.9c0.1-0.1,0.1-0.1,0.1-0.2c0.1-0.1,0.1-0.1,0.1-0.2c0.1-0.1,0.1-0.1,0.1-0.2
	c0.1-0.1,0.1-0.2,0.2-0.3c0.7,1.1,1.3,2.1,1.9,3.1c0.6,1,1.2,2.1,1.9,3.2C79.6,53.3,78.9,53.3,78.3,53.3z M120.4,79.6
	c0,0.3,0,0.5-0.1,0.7c-0.3,1.4-1.6,2.5-3.1,2.5c-1.5,0-2.8-1.1-3.1-2.5c-0.1-0.2-0.1-0.5-0.1-0.7v-0.1c0-1.8,1.5-3.2,3.2-3.2
	C118.9,76.4,120.4,77.8,120.4,79.6L120.4,79.6z"/>
<path class="st2" d="M147.6,82.2c-0.1-0.8-0.1-1.6-0.2-2.3c-0.1-0.4-0.1-0.9-0.1-1.3c-0.1-0.5-0.1-0.9-0.1-1.5
	c-3.6-29.5-25-53.4-53.1-60.7c-0.5-0.1-1.1-0.3-1.7-0.4c-0.6-0.1-1.1-0.3-1.7-0.4c-0.6-0.1-1.1-0.2-1.7-0.3c-0.1,0-0.1,0-0.2-0.1
	c-0.5-0.1-1.1-0.2-1.6-0.3c-0.6-0.1-1.2-0.2-1.8-0.3c-0.7-0.1-1.3-0.1-1.9-0.2c-0.1,0-0.1,0-0.1,0c-0.5-0.1-1-0.1-1.5-0.1
	c-0.6-0.1-1.1-0.1-1.7-0.1c-0.1,0-0.1,0-0.3,0c-0.1,0-0.3,0-0.4,0c-0.2,0-0.5,0-0.7-0.1c-0.2,0-0.4,0-0.7,0c-0.1,0-0.1,0-0.2,0
	c-0.5,0-1,0-1.5,0h-0.2c-0.6,0-1.2,0-1.9,0H74c-38.6,1-69.6,32.7-69.6,71.6c0,0.6,0,1.2,0,1.8c0,0.3,0,0.7,0.1,1.1
	c0,0.5,0,0.9,0.1,1.3v0.1c0,0.2,0,0.3,0,0.5c0,0.1,0,0.1,0,0.2c0,0.3,0.1,0.5,0.1,0.9c0,0.1,0,0.1,0,0.2c0,0.4,0.1,0.8,0.1,1.3
	c0.1,0.5,0.1,1.1,0.2,1.7c0,0.3,0.1,0.5,0.1,0.7C5,96,5.1,96.6,5.2,97.2c0.1,0.4,0.1,0.8,0.2,1.1c0,0.1,0,0.1,0.1,0.3
	c0,0.1,0.1,0.3,0.1,0.4V99c0.1,0.5,0.1,0.9,0.3,1.3c0.2,1.1,0.5,2.3,0.7,3.3c0.1,0.2,0.1,0.5,0.2,0.7c0.1,0.3,0.1,0.6,0.3,0.9
	c0.1,0.3,0.1,0.5,0.2,0.7c0.1,0.4,0.2,0.7,0.3,1.1c0.1,0.1,0.1,0.3,0.1,0.3c0.3,1,0.7,2.1,1.1,3.1c0.1,0.2,0.1,0.4,0.3,0.7
	c0,0.1,0.1,0.3,0.1,0.3c0.1,0.3,0.2,0.5,0.3,0.7c0.1,0.3,0.2,0.5,0.3,0.9c0.1,0.3,0.3,0.7,0.4,0.9c0.1,0.3,0.3,0.7,0.5,1
	c0.1,0.3,0.3,0.5,0.4,0.8c0,0.1,0.1,0.1,0.1,0.1c0.2,0.5,0.4,0.9,0.7,1.3c0.2,0.5,0.4,0.9,0.7,1.3c0.2,0.4,0.4,0.8,0.7,1.3
	c0.5,0.9,1.1,1.9,1.6,2.8c0.1,0.2,0.2,0.3,0.3,0.5c0.5,0.9,1.1,1.7,1.7,2.5c0.1,0.1,0.1,0.2,0.2,0.3c0.3,0.5,0.7,1.1,1.1,1.5
	c0.1,0.1,0.1,0.2,0.2,0.3c0.3,0.4,0.6,0.8,0.9,1.3c0.1,0.1,0.1,0.2,0.2,0.3c0.4,0.5,0.7,1,1.1,1.5c0.4,0.5,0.9,1.1,1.3,1.5
	c0.2,0.3,0.4,0.5,0.6,0.7c0.2,0.3,0.5,0.5,0.7,0.8c0.5,0.5,0.9,0.9,1.3,1.5c0.5,0.5,0.9,0.9,1.4,1.4c0.3,0.3,0.5,0.5,0.9,0.8
	c0.5,0.5,0.9,0.9,1.4,1.3c0.1,0.1,0.1,0.1,0.1,0.1c0.5,0.4,0.9,0.8,1.4,1.2c0.3,0.3,0.7,0.6,1.1,0.9c1.1,0.9,2.3,1.8,3.5,2.7
	c0.2,0.2,0.5,0.3,0.7,0.5c0.6,0.4,1.1,0.8,1.7,1.2c0.3,0.2,0.6,0.4,0.9,0.6c0.4,0.3,0.8,0.5,1.2,0.7c0.2,0.1,0.4,0.3,0.6,0.4
	c1.3,0.8,2.7,1.6,4.1,2.3c0.4,0.2,0.9,0.5,1.3,0.7c0.7,0.3,1.3,0.6,1.9,0.9c0.3,0.1,0.5,0.3,0.8,0.3c0.1,0,0.1,0.1,0.1,0.1
	c0.1,0.1,0.3,0.1,0.5,0.2c0.3,0.1,0.7,0.3,1,0.4c0.3,0.1,0.7,0.3,1,0.4c0,0,0,0,0.1,0c0.1,0.1,0.3,0.1,0.5,0.2
	c0.1,0,0.1,0.1,0.2,0.1c0.4,0.1,0.7,0.3,1.1,0.4l0,0c0.5,0.2,0.9,0.3,1.3,0.5c0.4,0.1,0.8,0.3,1.2,0.4c0.2,0.1,0.3,0.1,0.5,0.2
	c0.4,0.1,0.9,0.3,1.3,0.4c0.4,0.1,0.7,0.2,1.1,0.3c0.1,0.1,0.3,0.1,0.5,0.1c0.1,0,0.2,0.1,0.3,0.1c0.4,0.1,0.8,0.2,1.2,0.3
	c0.4,0.1,0.7,0.2,1.1,0.3c0.1,0,0.1,0,0.1,0.1c0.5,0.1,1.1,0.2,1.6,0.3c0.5,0.1,1,0.2,1.5,0.3c0.2,0.1,0.5,0.1,0.7,0.1
	c0.1,0,0.1,0,0.1,0l0,0c0.3,0.1,0.6,0.1,0.9,0.1c0.1,0,0.1,0,0.1,0c0.8,0.1,1.6,0.2,2.4,0.3c0.3,0,0.7,0.1,1,0.1s0.7,0.1,1,0.1
	c0.2,0,0.4,0.1,0.6,0.1c1.1,0.1,2.2,0.1,3.3,0.2c0.1,0,0.2,0,0.3,0c0.5,0,1.1,0,1.7,0l0,0c0.5,0,1,0,1.5,0c0.2,0,0.3,0,0.5,0
	c0.5,0,0.9,0,1.3-0.1c0.2,0,0.5,0,0.7,0c0.4,0,0.8-0.1,1.2-0.1c0.1,0,0.1,0,0.1,0h0.3c0.2,0,0.3,0,0.5-0.1c0.3,0,0.7-0.1,1-0.1
	s0.6-0.1,0.9-0.1c0.3,0,0.6-0.1,0.9-0.1c0.3,0,0.5-0.1,0.8-0.1c0.5-0.1,1.1-0.1,1.7-0.3c0.5-0.1,1.1-0.2,1.6-0.3
	c0.5-0.1,0.9-0.2,1.4-0.3c0.1,0,0.1,0,0.1,0c0.5-0.1,1.1-0.2,1.7-0.3c0.5-0.1,0.9-0.2,1.4-0.3c0,0,0,0,0.1,0
	c0.4-0.1,0.8-0.2,1.2-0.3c0.8-0.2,1.5-0.4,2.3-0.7c0.3-0.1,0.5-0.1,0.7-0.3c0.8-0.3,1.5-0.5,2.3-0.8c0.3-0.1,0.5-0.2,0.7-0.3
	c0.3-0.1,0.5-0.2,0.8-0.3c0.2-0.1,0.5-0.2,0.7-0.3c0.3-0.1,0.6-0.2,0.9-0.3c0.4-0.1,0.7-0.3,1.1-0.5c0.5-0.2,0.9-0.4,1.4-0.6
	c0.3-0.1,0.5-0.2,0.7-0.3c0.3-0.2,0.7-0.3,1.1-0.5c0.1-0.1,0.3-0.1,0.4-0.2c0.5-0.2,0.9-0.5,1.3-0.7c0.1-0.1,0.2-0.1,0.3-0.1
	c0.5-0.3,1.1-0.5,1.6-0.9c0.3-0.1,0.5-0.3,0.7-0.4c0.8-0.5,1.5-0.9,2.3-1.4c0.3-0.2,0.5-0.3,0.8-0.5c0.7-0.5,1.5-1,2.2-1.5
	c0.3-0.2,0.5-0.4,0.9-0.6c0.3-0.3,0.7-0.5,1-0.7c0.3-0.2,0.5-0.4,0.8-0.6c0.2-0.2,0.5-0.3,0.7-0.5c0.2-0.1,0.4-0.3,0.6-0.5
	c0.2-0.1,0.4-0.3,0.5-0.5l0,0c0.1-0.1,0.1-0.1,0.1-0.1c0.3-0.3,0.7-0.5,0.9-0.8c0.4-0.3,0.8-0.7,1.2-1.1c0.4-0.3,0.7-0.7,1.1-1.1
	c0.2-0.1,0.3-0.3,0.5-0.5c0.6-0.6,1.2-1.2,1.8-1.8c0.2-0.2,0.4-0.4,0.5-0.6l0.1-0.1c0.2-0.2,0.4-0.4,0.6-0.6l0,0
	c0.2-0.3,0.4-0.5,0.7-0.7c0.2-0.2,0.4-0.5,0.6-0.7c0.1-0.1,0.3-0.3,0.4-0.5c0.1-0.1,0.3-0.3,0.4-0.5c0.3-0.4,0.7-0.7,0.9-1.1
	c0.5-0.7,1.1-1.4,1.7-2.1c0.3-0.4,0.6-0.7,0.9-1.1c0.1-0.2,0.3-0.3,0.4-0.5c0.3-0.4,0.5-0.7,0.8-1.1c0.3-0.5,0.7-0.9,0.9-1.5
	c0.3-0.4,0.5-0.8,0.8-1.2c0.1-0.1,0.1-0.2,0.2-0.3c0.3-0.5,0.5-0.9,0.8-1.4c0.3-0.5,0.5-0.9,0.8-1.4c0.1-0.1,0.1-0.1,0.1-0.3
	c0.2-0.4,0.4-0.7,0.6-1.1l0,0c0.2-0.4,0.5-0.9,0.7-1.3c0.1-0.3,0.3-0.5,0.4-0.7c0.5-0.9,0.9-1.9,1.3-2.9c0.2-0.5,0.5-1.1,0.7-1.6
	c0.6-1.5,1.1-3,1.6-4.5c0.1-0.2,0.1-0.5,0.2-0.7l0,0c0.1-0.5,0.3-0.9,0.4-1.5c0.1-0.5,0.3-1,0.4-1.5c0.3-1,0.5-2,0.7-3
	c0.1-0.3,0.1-0.6,0.2-0.9c0.1-0.3,0.1-0.7,0.2-1c0.1-0.2,0.1-0.5,0.1-0.7c0-0.1,0-0.1,0-0.1c0.1-0.5,0.1-1,0.3-1.5
	c0.1-0.6,0.2-1.2,0.3-1.8c0.1-0.3,0.1-0.7,0.1-1.1c0-0.1,0-0.1,0-0.3c0-0.2,0.1-0.4,0.1-0.6c0-0.2,0.1-0.4,0.1-0.5
	c0-0.3,0.1-0.5,0.1-0.8v-0.1c0-0.2,0-0.3,0.1-0.5c0.1-0.5,0.1-1.1,0.1-1.7c0-0.1,0-0.1,0-0.3c0-0.3,0-0.6,0.1-0.9c0-0.2,0-0.4,0-0.6
	c0-0.1,0-0.3,0-0.4c0-0.4,0-0.8,0-1.1v-0.3l0,0C147.7,84.7,147.7,83.4,147.6,82.2z M76.3,151.9c-36.3-0.1-65.6-29.4-65.6-65.6
	c0-36.1,29.1-65.6,65.6-65.6c36.3,0,65.6,29.3,65.6,65.7C141.8,122.8,112.3,151.9,76.3,151.9z"/>
<path d="M76.3,20.6c-36.5,0-65.6,29.5-65.6,65.6c0,36.3,29.2,65.6,65.6,65.6c36.1-0.1,65.6-29,65.6-65.6
	C141.8,49.9,112.6,20.7,76.3,20.6z M135.7,110.7c-0.1,0.1-0.1,0.3-0.2,0.5c-9.6,23-32.3,39.5-59.3,39.5c-35.7,0-64.3-29-64.3-64.4
	c0-35.5,28.9-64.4,64.3-64.3c33.5,0.1,60.8,25.6,63.9,57.9c0,0.1,0,0.3,0.1,0.5c0.2,1.9,0.3,3.9,0.3,5.9
	C140.5,94.9,138.8,103.1,135.7,110.7z"/>
<path d="M130.4,46.4c0-0.5,0-0.9,0-1.4c-0.5-0.1-0.9-0.2-1.4-0.3v-0.1c0.5-0.2,0.9-0.3,1.4-0.4c-0.1-0.5-0.1-0.9-0.2-1.5
	c0.4,0.4,0.6,0.8,0.9,1.2c0.4-0.2,0.9-0.4,1.4-0.6c-0.3,0.5-0.6,0.8-0.9,1.2c0.3,0.4,0.6,0.7,1,1.1c-0.5-0.1-0.9-0.3-1.4-0.4
	c-0.3,0.4-0.5,0.8-0.7,1.2C130.5,46.5,130.4,46.5,130.4,46.4z"/>
<path d="M19.9,43.4c0.4,0.2,0.8,0.3,1.2,0.5c0.2-0.4,0.5-0.7,0.7-1c0,0,0,0,0.1,0c0,0.4,0,0.9-0.1,1.3c0.4,0.1,0.9,0.2,1.3,0.4v0
	c-0.4,0.1-0.9,0.2-1.3,0.3c0,0.4,0,0.9,0,1.3c0,0,0,0,0,0c-0.2-0.4-0.4-0.8-0.7-1.1c-0.4,0.1-0.8,0.3-1.2,0.4l0,0
	c0.3-0.3,0.6-0.6,0.9-0.9C20.4,44.3,20.2,43.9,19.9,43.4C19.9,43.5,19.9,43.4,19.9,43.4z"/>
<path d="M9.6,95.2c0,0.5-0.5,1-1,1.1c-0.5,0-1-0.4-1.1-1c0-0.6,0.5-1.1,1-1.1C9.2,94.2,9.6,94.7,9.6,95.2z"/>
<path d="M77.5,154.5c0,0.5-0.5,1-1,1.1c-0.5,0-1-0.4-1.1-1c0-0.6,0.5-1.1,1-1.1C77.1,153.5,77.5,153.9,77.5,154.5z"/>
<path d="M86.6,152.7c0.5,0,1,0.5,1.1,1c0,0.5-0.5,1-1,1.1c-0.6,0-1.1-0.5-1.1-1C85.6,153.2,86,152.7,86.6,152.7z"/>
<path d="M67.5,153.9c0,0.5-0.5,1-1,1c-0.6,0-1.1-0.5-1.1-1.1c0-0.5,0.5-1,1.1-1C67,152.8,67.5,153.3,67.5,153.9z"/>
<path d="M9.8,75.8c0,0.5-0.5,1-1,1c-0.6,0-1.1-0.5-1-1.1c0-0.5,0.5-1,1.1-1C9.4,74.8,9.8,75.3,9.8,75.8z"/>
<path d="M144.8,75.9c0,0.5-0.5,1-1,1c-0.5,0-1-0.5-1-1c0-0.6,0.5-1.1,1.1-1.1C144.4,74.9,144.8,75.4,144.8,75.9z"/>
<path d="M7.9,84.4c0.5,0,1,0.5,1,1c0,0.6-0.5,1.1-1.1,1c-0.5,0-1-0.5-1-1.1C6.8,84.9,7.3,84.4,7.9,84.4z"/>
<path d="M144.1,94.1c0.5,0,1,0.5,1,1s-0.5,1-1,1c-0.6,0-1.1-0.5-1.1-1.1C143.1,94.5,143.6,94.1,144.1,94.1z"/>
<path d="M49.9,22c0.5,0,1,0.4,1.1,1c0,0.6-0.5,1.1-1.1,1.1c-0.5,0-1-0.5-1-1C48.9,22.4,49.4,22,49.9,22z"/>
<path d="M97.9,151.3c0,0.5-0.5,1-1,1c-0.6,0-1.1-0.5-1-1.1c0-0.5,0.5-1,1.1-1C97.5,150.3,98,150.7,97.9,151.3z"/>
<path d="M145.6,85.5c0,0.5-0.5,1-1,1c-0.6,0-1.1-0.5-1-1.1c0-0.5,0.5-1,1.1-1C145.2,84.5,145.6,85,145.6,85.5z"/>
<path d="M56,150.3c0.5,0,1,0.5,1,1c0,0.5-0.5,1-1,1c-0.6,0-1.1-0.5-1-1.1C55,150.8,55.5,150.3,56,150.3z"/>
<path d="M103.9,23c0,0.5-0.4,1-1,1.1c-0.6,0-1.1-0.5-1.1-1c0-0.5,0.5-1,1-1C103.4,22,103.9,22.4,103.9,23z"/>
<path d="M105.2,146.9c0.3-0.5,0.7-0.8,0.9-1.2c0.5,1.1,0.7,2.3,1.7,3.1c-0.3,0.1-0.5,0.3-0.7,0.5c-0.2-0.5-0.4-1-0.6-1.5
	c-0.1-0.1-0.1-0.3-0.2-0.4C106,146.8,105.9,146.7,105.2,146.9z"/>
<path d="M46.5,149.4c-0.5-0.1-1-0.1-1.5-0.2c0.7-1,1.6-1.8,1.8-3.1c0.3,0.1,0.5,0.3,0.9,0.5c-0.7,0.4-1,1-1.3,1.6
	C46,148.7,46,148.9,46.5,149.4z"/>
<path d="M118.3,99.7c-2.3-1.5-4.9-1.9-7.6-1.2c-0.7,0.2-1.4,0.5-2.1,0.8c-0.1-0.1-0.1-0.1-0.1-0.1c-1.1-2-2.3-4-3.5-6
	c-0.1-0.3-0.1-0.5-0.1-0.8c0.3-1.3,0.4-2.5,0.5-3.8v-0.7c0.1-1.7-0.1-3.3-0.3-5l-0.4-2c-0.1-0.3-0.1-0.5-0.2-0.7
	c-1.1-4.2-3-8-5.8-11.4c-0.1-0.1-0.3-0.3-0.4-0.5c0.3-0.1,0.6-0.1,0.7-0.3c0.1-0.4,0.3-0.7,0.5-1c0.1-0.1,0-0.3,0-0.4
	c0-0.1-0.1-0.3,0-0.3c0.2-0.5,0.3-1,0.5-1.5c0.1-0.4,0.1-0.8,0.1-1.1c-0.1-0.5-0.3-0.9-0.3-1.3c-0.1-0.4-0.2-0.8-0.2-1.2
	c0.1-1-0.3-1.9-0.9-2.7c-0.5-0.9-1.3-1.7-2-2.5c0-0.8-0.3-1.6-1.2-2.1c-0.2-0.1-0.3-0.3-0.3-0.5c0-0.5-0.2-0.9-0.5-1.4
	c-0.1,0.1-0.2,0.3-0.3,0.4c-0.2,0.2-0.3,0.5-0.5,0.7c-0.3,0.3-0.7,0.5-1.3,0.5c-0.4-0.1-0.9,0-1.3,0c-0.1,0-0.3,0-0.4-0.1
	c-0.5-0.3-1.1-0.5-1.2-1.2c-0.6,0.3-0.8,0.9-0.5,1.5c0.2,0.3,0.1,0.5,0,0.7c-0.5,0.9-0.3,1.5,0.3,2.1V58c-0.1,0.6,0,1.2,0.2,1.8
	c0,0.1,0.1,0.1,0.1,0.1h0.5c0.2,0.7,0.3,1.3,0.5,2.1c-0.2-0.1-0.3-0.2-0.5-0.3c-1.3-0.7-2.6-1.3-4-1.7c-0.4-0.1-0.6-0.3-0.8-0.7
	c-2-3.5-4-7-6.1-10.5c-0.7-1.1-1.4-2.3-2-3.5c-0.5-0.9-1.4-0.9-1.8,0c-0.1,0.2-0.2,0.3-0.3,0.5c-2.6,4.5-5.2,9-7.8,13.4
	c-0.1,0.3-0.3,0.5-0.6,0.5c-4.9,1.7-9,4.5-12.4,8.4c-0.8,0.9-1.6,1.9-2.3,2.9c-0.3,0.5-0.6,0.9-0.9,1.5c-2.1,3.6-3.3,7.6-3.7,11.9
	c-0.1,0.7-0.1,1.3-0.1,1.9v0.7c0,1.7,0.2,3.5,0.5,5.2c0,0.2,0,0.4-0.1,0.6c-0.2,0.4-0.5,0.8-0.7,1.2c-0.1,0.3-0.3,0.5-0.4,0.7
	c-0.6,1.1-1.2,2.1-1.8,3.2c-1.8,3.1-3.6,6.2-5.4,9.3c-0.1,0.1-0.1,0.3-0.2,0.4c-0.2,0.5,0.1,0.9,0.6,1.1c0.3,0.1,0.5,0.1,0.7,0.1
	h16.1c0.4,0,0.7,0.1,1,0.3c1.1,0.8,2.1,1.6,3.3,2.3c1.1,0.7,1.9,1.7,2.6,2.7c0.4,0.5,0.7,1.1,1.1,1.7c0.5,0.7,0.8,1.3,0.7,2.1
	c-0.1,0.3,0,0.7,0.2,1.1c0.2,0.4,0.4,0.8,0.4,1.3c0.1,1,0.1,2,0.1,2.9c0,0.9-0.1,1.9-0.3,2.8c-0.1,0.3-0.1,0.5-0.1,0.8
	c-0.3,1.2-0.1,2.4-0.1,3.6c0,0.6,0.3,1.2,0.4,1.8c0.2,0.5,0.7,0.9,1.3,0.8c0.8-0.1,1.3-0.5,1.5-1.3c0.3-1.2,0.3-2.4,0-3.7
	c-0.3-1.4-0.8-2.7-0.8-4.2v-3.7c0-0.2,0.1-0.4,0.1-0.5c0.5-0.6,0.6-1.3,0.5-2.1v-1.5c0.1-0.1,0.3-0.1,0.3-0.2c0.3-0.3,0.6-0.3,1-0.3
	c0.3,0,0.7-0.1,0.9-0.1c0.2,0,0.4-0.1,0.6,0c2.9,0.5,6,0.5,8.9,0.1c5.6-0.8,10.5-3,14.8-6.6c0.3-0.3,0.5-0.3,0.9-0.3h6.3
	c0.4,0,0.8,0.1,1.2,0.1c0.1,0.1,0.1,0.1,0.1,0.1c0.1,0.3,0.1,0.5,0.1,0.8c0.6,3.7,2.4,6.7,5.8,8.5c2.7,1.4,5.4,1.5,8.2,0.2
	c0.2-0.1,0.3-0.2,0.5-0.3c-0.2,0-0.3,0-0.4,0.1c-1.9,0.6-3.9,0.5-5.8-0.4c-2.9-1.4-4.5-3.7-5.2-6.9c-0.1-0.7-0.2-1.3-0.1-2.1h5.8
	c1.1,0,1.4-0.8,0.9-1.5c-0.1-0.1-0.1-0.1-0.1-0.2c-0.9-1.6-1.9-3.2-2.7-4.7c-0.1-0.2-0.2-0.3-0.3-0.5c0.2-0.1,0.4-0.3,0.6-0.4
	c2.1-1.2,4.2-1.5,6.5-0.7c2.5,0.9,4.2,2.5,5.3,4.9c0.1,0.1,0.1,0.2,0.1,0.3c0.1,0.1,0.1,0.1,0.2,0.3v-0.1
	C122.2,103.4,120.8,101.2,118.3,99.7z M94.1,54.3c0.3,0,0.6,0.3,0.6,0.7s-0.3,0.6-0.7,0.6c-0.3,0-0.7-0.3-0.7-0.7
	C93.4,54.5,93.7,54.3,94.1,54.3z M90.5,54.9c0-0.1,0-0.2,0.1-0.3c0-0.1,0.1-0.1,0.1-0.2c0.1-0.1,0.3-0.2,0.5-0.2
	c0.4,0,0.7,0.3,0.7,0.7c0,0.1,0,0.2-0.1,0.3c0,0.1-0.1,0.1-0.1,0.2c-0.1,0.1-0.1,0.1-0.2,0.1c-0.1,0-0.1,0-0.1,0.1
	c-0.1,0.1-0.1,0-0.1,0C90.7,55.6,90.5,55.3,90.5,54.9z M87.8,63c0.3,0.1,0.7,0.3,1,0.5c0.4,0.2,0.8,0.4,1.2,0.7
	c0.2,0.1,0.5,0.3,0.7,0.4c0.1,0.1,0.3,0.2,0.5,0.3c0.2,0.1,0.3,0.3,0.5,0.3c0.5,0.3,0.9,0.7,1.4,1.1c0,0,0.1,0,0.1,0.1
	c0.1,0.1,0.1,0.1,0.2,0.1c0,0,0.1,0,0.1,0.1c0.1,0,0.1,0.1,0.1,0.1l0.1,0.1c0.1,0.1,0.1,0.1,0.2,0.1c0,0,0,0,0.1,0
	c0.2,0.2,0.4,0.3,0.6,0.5c0.3,0.3,0.6,0.5,0.9,0.8c0.1,0.1,0.3,0.3,0.4,0.4c0.1,0.1,0.1,0.1,0.1,0.1c0.2,0.2,0.3,0.3,0.5,0.5
	c0.2,0.3,0.5,0.5,0.7,0.7c0.2,0.2,0.3,0.4,0.5,0.6c0.3,0.5,0.7,0.9,1.1,1.5c0.2,0.3,0.4,0.6,0.6,0.9c0.1,0.3,0.3,0.5,0.5,0.7
	c0.2,0.3,0.4,0.7,0.5,1c0.2,0.3,0.3,0.6,0.5,0.9c0.1,0.3,0.3,0.6,0.4,0.9c0.4,0.9,0.7,1.9,1.1,2.8c0.1,0.3,0.2,0.6,0.3,0.9
	c0.1,0.3,0.1,0.5,0.2,0.8c0,0.1,0.1,0.3,0.1,0.4c0.3,1.1,0.5,2.3,0.5,3.5v3.5c0,0,0,0,0,0.1v1.1c-0.1,0-0.1,0.1-0.1,0.1
	c-0.1-0.2-0.2-0.3-0.3-0.5c-0.1-0.2-0.3-0.4-0.3-0.7c0,0,0,0,0-0.1c-4.9-8.4-9.8-16.8-14.6-25.2C87.7,63,87.7,63,87.8,63z
	 M73.1,53.1c0-0.1,0.2-0.4,0.4-0.9c0.1-0.1,0.1-0.3,0.2-0.4c0.1-0.1,0.1-0.1,0.1-0.2c0.1-0.1,0.1-0.1,0.1-0.3
	c0.1-0.1,0.1-0.1,0.1-0.3c0.1-0.2,0.2-0.3,0.3-0.5c0.1-0.1,0.1-0.3,0.2-0.4c0.1-0.2,0.3-0.5,0.4-0.7c0.1-0.1,0.1-0.2,0.2-0.3
	c0.1-0.1,0.1-0.2,0.2-0.3c0.2-0.3,0.3-0.6,0.5-0.9c0.1-0.1,0.1-0.1,0.1-0.2c0.1-0.1,0.1-0.1,0.1-0.2c0.1-0.1,0.1-0.1,0.1-0.2
	c0.1-0.1,0.1-0.2,0.2-0.3c0.7,1.1,1.2,2.1,1.9,3.1c0.6,1,1.2,2.1,1.9,3.2c-0.7-0.1-1.3-0.1-1.9-0.2c-0.3,0-0.5,0-0.7-0.1h-0.4
	c-1.4-0.1-2.8,0-4.2,0.2C73,53.3,73,53.2,73.1,53.1z M69.3,59.4L69.3,59.4c0.1-0.1,0.1-0.1,0.1-0.1c0.1-0.1,0.1-0.1,0.2-0.1
	c0.1,0,0.1,0,0.1-0.1h0.1c2.2-0.5,4.5-0.7,6.8-0.7c2.1,0,4.2,0.3,6.3,0.7c0.5,0.1,0.8,0.3,1,0.7c0.3,0.6,0.7,1.2,1.1,2
	c-5.8-1.9-11.4-1.9-17.2,0C68.4,61,68.8,60.2,69.3,59.4z M65.4,62.9c-0.1,0.3-0.3,0.5-0.3,0.7c-2.8,4.8-5.6,9.7-8.4,14.5
	c-0.9,1.6-1.9,3.2-2.8,4.9c-0.3,0.5-0.6,1.1-0.9,1.5c-0.3,0.5-0.6,1.1-0.9,1.5c-0.6,1-1.2,2.1-1.8,3.1c-0.1,0.1-0.2,0.3-0.3,0.4
	C48.6,79.7,54.3,67.9,65.4,62.9z M41.5,107.5c1.3-2.2,2.5-4.3,3.7-6.5c1,2.3,2.3,4.4,3.7,6.5H41.5z M56.5,107.5H56c0,0-0.1,0-0.1,0
	c0,0-0.1,0-0.1-0.1c0,0-0.1,0-0.1-0.1c-0.1,0-0.1-0.1-0.1-0.1c-0.1-0.1-0.1-0.1-0.1-0.1c-1.6-1.7-3-3.5-4.1-5.6
	c-1.1-1.9-1.9-3.9-2.6-6c0-0.1,0-0.1-0.1-0.2v-0.3c0-0.1,0-0.1,0.1-0.1c0-0.1,0.1-0.1,0.1-0.1c0.1-0.1,0.2-0.3,0.3-0.5
	c0.2-0.3,0.4-0.7,0.6-1.1c0.1-0.1,0.1-0.1,0.1-0.2c0,0,0,0,0.1-0.1c0.1-0.1,0.1-0.1,0.2-0.3c0.1,0.3,0.1,0.5,0.2,0.7
	c0.1,0.3,0.1,0.5,0.2,0.7c0.1,0.2,0.1,0.4,0.1,0.6c0,0.1,0,0.1,0.1,0.1c0.1,0.3,0.1,0.5,0.2,0.7v0.1c0,0.1,0.1,0.1,0.1,0.2
	c0,0.1,0,0.1,0.1,0.1c0.1,0.3,0.2,0.5,0.3,0.8c0.1,0.2,0.1,0.4,0.3,0.7c0,0.1,0,0.1,0.1,0.1c0.1,0.1,0.1,0.3,0.2,0.5
	c0.1,0.3,0.3,0.5,0.4,0.9c0.1,0.3,0.3,0.5,0.4,0.9c0.3,0.6,0.6,1.2,1,1.7l0.1,0.1c0.2,0.3,0.4,0.6,0.6,0.9c0.1,0.3,0.3,0.5,0.5,0.7
	s0.3,0.3,0.3,0.5c0.3,0.3,0.5,0.7,0.8,1c0.1,0.1,0.2,0.3,0.3,0.4c0.4,0.5,0.8,0.9,1.3,1.3c0.1,0.1,0.1,0.1,0.2,0.2
	c0.3,0.3,0.5,0.5,0.7,0.7C57.8,107.5,57.1,107.5,56.5,107.5z M56.1,94.5c-0.1-0.2-0.1-0.5-0.3-0.7c-0.2-0.6-0.4-1.3-0.5-1.9
	c-0.6-2.5-0.7-5-0.3-7.6c0-0.2,0.1-0.5,0.2-0.7c2.5-4.3,5-8.7,7.6-13c0.1-0.2,0.3-0.4,0.5-0.5c2.7-2.1,5.8-3.5,9.2-4.1
	c3.1-0.6,6.2-0.5,9.2,0.3c3.1,0.7,5.9,2.1,8.4,4.1c0.2,0.1,0.3,0.3,0.5,0.5c2.3,4.1,4.7,8.2,7.1,12.3c0.1,0.2,0.2,0.5,0.3,0.8
	c0.3,1.7,0.3,3.3,0.2,5c0,0.3-0.1,0.5-0.1,0.7c-0.9,7.7-5.8,14.5-13.2,17.5c-0.4,0.1-0.7,0.2-1.2,0.2H69.3c-0.3,0-0.7-0.1-1.1-0.2
	C62.2,104.6,58.1,100.4,56.1,94.5z M82,113.5c-3.6,0.7-7.2,0.7-10.9,0c-0.3-0.1-0.7-0.1-1.1-0.3c-0.1,0-0.3-0.1-0.4-0.1
	c-0.2-0.1-0.4-0.1-0.5-0.2c-0.7-0.2-1.5-0.5-2.3-0.8l-1-0.4c-1.2-0.5-2.3-1.1-3.1-1.5c-0.3-0.2-0.5-0.3-0.7-0.5
	c-0.1-0.1-0.3-0.2-0.3-0.3c-0.1-0.1-0.3-0.2-0.3-0.3H92C91.1,110.3,85.2,112.9,82,113.5z M98.3,106c-0.3,0.4-0.7,0.8-1.1,1.2
	c-0.1,0.1-0.3,0.2-0.4,0.3h-2.2c0,0,0-0.1-0.1-0.1c4.3-4,7.2-8.8,8.4-14.7c0.1,0.2,0.3,0.3,0.3,0.5c0.3,0.4,0.5,0.9,0.7,1.3
	c0.3,0.3,0.2,0.7,0.1,1.1C102.9,99.4,101,102.9,98.3,106z M111.5,107.5h-7.7c0.4-0.5,0.7-1.1,1.1-1.6c0.3-0.5,0.7-1.1,1-1.6
	c0.7-1.1,1.2-2.2,1.7-3.4C109,103,110.3,105.2,111.5,107.5z"/>
<path class="st3" d="M94.7,54.9c0,0.3-0.3,0.6-0.7,0.6c-0.3,0-0.7-0.3-0.7-0.7c0-0.3,0.3-0.6,0.7-0.6C94.5,54.3,94.7,54.6,94.7,54.9
	z"/>
<path class="st3" d="M91.8,54.9c0,0.1,0,0.2-0.1,0.3c0,0.1-0.1,0.1-0.1,0.2c-0.1,0.1-0.1,0.1-0.2,0.1c-0.1,0-0.1,0-0.1,0.1
	c-0.1,0.1-0.1,0-0.1,0c-0.4,0-0.7-0.3-0.7-0.7c0-0.1,0-0.2,0.1-0.3c0-0.1,0.1-0.1,0.1-0.2c0.1-0.1,0.3-0.2,0.5-0.2
	C91.5,54.3,91.8,54.5,91.8,54.9z"/>
<path d="M32.5,109.1c-2.4,0-4.1,1.7-4.1,4.1s1.7,4.1,4.1,4.1c2.4-0.1,4.1-1.7,4.1-4.2C36.7,110.8,34.9,109.1,32.5,109.1z
	 M32.5,115.8c-1.5,0-2.6-1.1-2.6-2.6c0-1.4,1.1-2.5,2.5-2.5c1.4,0,2.5,1.1,2.5,2.5C35.1,114.7,33.9,115.8,32.5,115.8z"/>
<path d="M64.6,139.5c0-1.6,1.3-2.9,2.8-2.9c1.6,0,2.9,1.3,2.9,2.8c0,1.6-1.3,2.9-2.9,2.9C65.8,142.3,64.6,141,64.6,139.5z"/>
<path d="M122.3,110.1c-1.8,0-3.1,1.3-3.1,3.1c0,1.8,1.3,2.9,3.1,3.1c1.8-0.1,3.1-1.3,3.1-3.1C125.4,111.4,124.1,110.1,122.3,110.1z
	 M122.3,115.1c-1.1,0-1.9-0.9-1.9-1.9s0.9-1.9,1.9-1.9s1.9,0.9,1.9,1.9C124.2,114.3,123.4,115.1,122.3,115.1z"/>
<path d="M80.3,34.9c-0.1,0.1-0.1,0.1-0.1,0.2c-1.1,0.7-2.1,1.1-3.4,0.8c-0.3-0.1-0.6-0.1-0.9-0.2c-0.5-0.1-1-0.1-1.5,0.1
	c-0.2,0.7-0.2,1.3,0,2.1c0.1-0.1,0.3-0.1,0.3-0.2c0.5-0.3,0.9-0.6,1.4-0.7c1.4-0.3,2.5,0.1,3.5,1.1c0.9,0.9,0.7,2.8-0.4,3.7
	c-0.3,0.3-0.7,0.5-1.1,0.7c-1,0.4-3,0.6-4.2,0.4c0.1-0.3,0.3-0.6,0.4-0.9c0.1-0.3,0.1-0.7,0.1-1.1c0.1,0.1,0.1,0.1,0.1,0.1
	c0.3,0.7,0.9,1.1,1.5,1.2c0.5,0.1,1,0.1,1.5,0.1c1-0.1,1.5-0.9,1.4-1.9c-0.1-1.3-1.4-2.5-2.7-2.7c-0.5-0.1-1.1,0.2-1.5,0.4
	c-0.2,0.1-0.5,0.2-0.7,0.3c0-0.9,0-1.7,0-2.5c0-0.1,0.1-0.2,0.1-0.3c0.9-0.8,1.9-1.1,3.1-0.9c0.5,0.1,1.1,0.2,1.7,0.3
	c0.4,0.1,0.8,0.1,1.1-0.1C80.1,34.9,80.1,34.9,80.3,34.9z"/>
<path d="M51.1,124.7c0.1-0.3,0.3-0.5,0.3-0.8c0.1-0.2,0-0.5,0-0.7c0.1,0,0.1,0,0.1,0c0.5,1.1,2.1,1.3,3.1,0.9c0.8-0.4,1-1.4,0.4-2.1
	c-0.2-0.3-0.5-0.4-0.9-0.5c-0.3-0.1-0.7-0.3-1-0.4c-0.2-0.1-0.4-0.2-0.6-0.3c0.1-0.4,0.5-0.5,0.7-0.7c0.3-0.2,0.5-0.4,0.8-0.6
	c-0.6-0.2-1.1-0.4-1.7-0.5c-0.4-0.1-0.7,0.1-1,0.5c-0.1,0.1-0.1,0.1-0.1,0.2c-0.2-0.1-0.3-0.3-0.1-0.5c0.5-0.5,1.1-0.9,1.8-0.6
	c0.8,0.3,1.5,0.5,2.4,0.3c-0.6,0.5-1.1,0.9-1.8,1.5c0.3,0.1,0.5,0.1,0.7,0.1c0.3,0.1,0.7,0.2,1.1,0.3c1.4,0.6,1.2,1.9,0.7,2.7
	c-0.3,0.5-0.7,0.7-1.3,0.9c-0.5,0.1-0.9,0.3-1.4,0.3C52.7,124.6,51.9,124.6,51.1,124.7z"/>
<path d="M101.6,123.2c0.1,0.5,0.2,0.9,0.3,1.5c-0.7,0-1.4,0.1-2.1-0.1c-0.6-0.1-1.1-0.2-1.7-0.4c-0.7-0.3-1.3-0.9-1.4-1.7
	c-0.1-0.7,0.1-1.2,0.7-1.6c0.4-0.2,0.8-0.3,1.2-0.5c0.3-0.1,0.5-0.1,0.9-0.2c-0.3-0.3-0.6-0.5-0.9-0.8c-0.3-0.3-0.6-0.5-1-0.7
	c0.1,0,0.2-0.1,0.3,0c0.7,0.2,1.3,0,1.9-0.2c0.8-0.3,1.5-0.1,2,0.5c0.2,0.2,0.2,0.3-0.1,0.5c-0.1-0.2-0.3-0.4-0.4-0.5
	c-0.3-0.1-0.5-0.2-0.8-0.1c-0.5,0.2-1,0.3-1.5,0.5c0.5,0.4,1.1,0.8,1.7,1.3c-0.4,0.2-0.6,0.3-0.9,0.4c-0.4,0.1-0.8,0.3-1.2,0.5
	c-0.5,0.3-0.8,0.6-0.9,1.2c-0.1,0.5,0.1,0.9,0.6,1.2C99.3,124.6,100.9,124.2,101.6,123.2C101.5,123.2,101.6,123.2,101.6,123.2z"/>
<path d="M92.6,90.5c-0.1-0.3-0.2-0.5-0.3-0.7c-0.1-0.1-0.1-0.1-0.2-0.3c-0.5-0.5-1.1-1-1.7-1.5c-1.1-0.9-2.1-1.9-3.2-2.8
	c-0.4-0.3-0.9-0.7-1.3-0.9c-0.9-0.5-1.7-1-2.7-1.3c-1.5-0.6-3.1-0.9-4.8-1.1c-1.9-0.1-3.9,0-5.8,0.4c-2.3,0.5-4.3,1.3-6.2,2.7
	c-1.9,1.4-3.6,3.1-5.4,4.7c-0.5,0.4-0.6,1-0.5,1.6c0.1,0.5,0.5,0.9,0.9,1.3c0.3,0.2,0.5,0.4,0.8,0.6l0,0c0.3,0.2,0.5,0.5,0.8,0.7
	l0,0c0.8,0.7,1.7,1.3,2.5,2c1.2,0.9,2.5,1.7,3.9,2.2c2.4,0.9,4.9,1.4,7.7,1.3c1.2,0.1,2.6-0.1,3.9-0.4c0.9-0.2,1.9-0.5,2.8-0.8
	c1.6-0.5,3-1.4,4.3-2.5s2.5-2.2,3.8-3.3C92.5,91.9,92.7,91.1,92.6,90.5z M90.1,91.8c-1.2,1-2.3,2.1-3.5,3c-2.3,1.8-5,2.7-7.9,2.9
	c-2.4,0.2-4.8,0.1-7.2-0.7c-0.3-0.1-0.5-0.1-0.7-0.2c-0.5-0.1-0.9-0.3-1.4-0.5c-0.5-0.2-0.9-0.4-1.3-0.7c-0.5-0.3-0.9-0.5-1.3-0.8
	c-0.2-0.1-0.4-0.3-0.6-0.5c-0.3-0.2-0.5-0.4-0.8-0.6l0,0l-0.1-0.1c-0.3-0.2-0.5-0.4-0.7-0.6c-0.6-0.5-1.3-1-1.9-1.5
	c-0.2-0.2-0.4-0.3-0.6-0.5c0-0.1,0-0.1,0-0.1l0,0l0,0c1.6-1.4,3.1-2.9,4.8-4.2c0.1-0.1,0.3-0.3,0.5-0.3c0.1-0.1,0.3-0.2,0.5-0.3
	c0.1-0.1,0.3-0.1,0.4-0.3c0.5-0.3,0.9-0.5,1.4-0.8c0.1,0,0.1-0.1,0.2-0.1c0,0,0.1,0,0.1-0.1c0.1-0.1,0.2-0.1,0.3-0.1
	c0.5-0.2,0.9-0.3,1.4-0.5c0.3-0.1,0.6-0.2,0.9-0.3c0.7-0.1,1.3-0.3,2-0.3c0.2,0,0.4-0.1,0.5-0.1c0.3,0,0.5-0.1,0.8-0.1
	c0.7,0,1.5,0,2.2,0.1c0.2,0,0.4,0,0.6,0.1c0.1,0,0.1,0,0.3,0c0.3,0,0.5,0.1,0.7,0.1c0.3,0.1,0.7,0.1,1,0.2c2.2,0.5,4.2,1.6,5.9,3.1
	c0.5,0.5,1.1,0.9,1.7,1.5c0.6,0.5,1.2,1.1,1.8,1.6c0.2,0.1,0.4,0.3,0.5,0.5c0.1,0.1,0.1,0.1,0.1,0.1l0,0l0,0c0,0.1,0.1,0.1,0.1,0.1
	s0.1,0.1,0.1,0.1C90.7,91.3,90.4,91.5,90.1,91.8z"/>
<path d="M77.1,74.4c0.3,0.5,0.4,1.1,0.4,1.7c0,0.5,0,0.9,0,1.4c0,0.3-0.1,0.5-0.3,0.8c-0.1,0.3-0.6,0.5-1,0.3
	c-0.3-0.1-0.4-0.3-0.4-0.7c0-0.6,0-1.3,0-1.9c0-0.3,0-0.7-0.1-1c-0.1-0.7,0.3-1,0.9-0.8C76.9,74.3,77,74.4,77.1,74.4z"/>
<path d="M61,79.8c0.6,0.1,1,0.5,1.4,0.9c0.3,0.4,0.7,0.7,1,1.1c0.1,0.2,0.3,0.4,0.3,0.6c0.1,0.4-0.1,0.9-0.5,1.1
	c-0.3,0.1-0.5,0-0.7-0.2c-0.4-0.5-0.9-0.9-1.3-1.4c-0.3-0.3-0.5-0.5-0.7-0.7c-0.5-0.4-0.4-0.9,0.2-1.2C60.8,79.9,60.9,79.8,61,79.8z
	"/>
<path d="M92.9,80.4c-0.1,0.5-0.3,1-0.7,1.4s-0.7,0.8-1.1,1.2c-0.2,0.2-0.5,0.3-0.8,0.5c-0.2,0.1-0.7-0.2-0.9-0.5
	c-0.1-0.3-0.1-0.5,0.1-0.7c0.5-0.5,0.9-1,1.4-1.5c0.2-0.2,0.3-0.4,0.5-0.6c0.4-0.6,0.9-0.6,1.3,0C92.7,80.2,92.8,80.3,92.9,80.4z"/>
<path d="M86,76.8c-0.1,0.3-0.1,0.5-0.2,0.7c-0.2,0.5-0.4,1.1-0.6,1.7c-0.1,0.2-0.2,0.4-0.3,0.6c-0.4,0.4-0.7,0.5-1.2,0.1
	c-0.2-0.1-0.3-0.4-0.2-0.7c0.2-0.5,0.4-1,0.6-1.5c0.1-0.5,0.3-0.9,0.5-1.3c0.2-0.5,0.7-0.7,1.1-0.4C85.8,76.2,86,76.5,86,76.8z"/>
<path d="M68.1,75.8c0.5,0.3,0.8,0.7,1,1.3c0.2,0.5,0.4,0.9,0.6,1.3c0.1,0.3,0.2,0.6,0.1,0.9c0,0.3-0.3,0.6-0.7,0.7
	c-0.3,0.1-0.5-0.1-0.7-0.4c-0.3-0.5-0.5-1.1-0.8-1.7c-0.1-0.3-0.3-0.7-0.5-0.9c-0.3-0.5-0.1-1,0.5-1.1
	C67.8,75.9,67.9,75.9,68.1,75.8z"/>
<path class="st4" d="M91.1,90.9c-0.3,0.3-0.6,0.6-0.9,0.9c-1.2,1-2.3,2.1-3.5,3c-2.3,1.8-5,2.7-7.9,2.9c-2.4,0.2-4.8,0.1-7.2-0.7
	c-1.9-0.6-3.7-1.5-5.4-2.7c-1.2-0.9-2.3-1.9-3.5-2.8c-0.2-0.1-0.4-0.3-0.6-0.5c0-0.1,0-0.1,0-0.1c1.6-1.4,3.1-2.9,4.8-4.1
	c2.4-1.9,5.3-2.8,8.3-3.1c1.9-0.1,3.7-0.1,5.6,0.4c2.2,0.5,4.2,1.5,5.9,3c1.4,1.1,2.7,2.4,4,3.5C90.9,90.7,90.9,90.8,91.1,90.9z"/>
<path id="SVGID_x5F_1_x5F__3_" class="st5" d="M146.9,86.2c0,39.2-31.8,71-71,71S5,125.4,5,86.2s31.8-71,71-71S146.9,47,146.9,86.2z
	"/>
<path id="SVGID_x5F_2_x5F__3_" class="st5" d="M59.5,155.2C21.4,146.1-2.1,107.8,7,69.7S54.3,8,92.5,17.1
	c38.1,9.1,61.6,47.4,52.5,85.6C135.9,140.8,97.6,164.4,59.5,155.2z"/>
<g>
	<path d="M51.8,72.3c0.2-0.3,0.4-0.6,0.7-0.9l-18.4-11c-0.3,0.4-0.6,0.9-1,1.2L33,61.7l18.6,11.2C51.7,72.7,51.7,72.5,51.8,72.3z"/>
</g>
<g>
	<polygon points="37.9,74.1 36.4,73.1 45.8,58.4 47.2,59.4 	"/>
</g>
<g>
	<path d="M103.6,80.2c0.3,0,0.6-0.1,0.9-0.1c3.3-0.2,6.5-0.3,9.4-0.4c0,0.3,0,0.5,0.1,0.7c-2.8,0.1-6,0.2-9.3,0.4
		c-0.3,0-0.7,0.1-1.1,0.1C103.6,80.6,103.6,80.4,103.6,80.2z"/>
	<path d="M114.5,86.9c-2.7,0.5-5.8,1.1-9,1.7c0,0,0,0-0.1,0c-0.7,0.1-1.5,0.3-2.3,0.4l0,0c-0.2,0-0.3,0.1-0.5,0.1h-0.1
		c-1.5,0.3-3.1,0.5-4.7,0.7l0,0c-1.7,0.3-3.5,0.5-5.3,0.8c-0.1,0-0.1,0-0.1,0c-0.5,0.1-1.1,0.1-1.6,0.2l0,0h-0.1h-0.1l0,0
		c-4.3,0.6-8.8,1.1-13.4,1.7c-4.1,0.5-8.2,0.9-12,1.3l0,0l0,0c-0.2,0-0.3,0-0.5,0.1c-0.3,0-0.6,0.1-0.9,0.1c-0.3,0-0.6,0.1-0.9,0.1
		c-0.2,0-0.3,0-0.5,0.1c-2.1,0.2-4.3,0.3-6.4,0.5c-0.7,0.1-1.3,0.1-1.9,0.1c-1.1,0.1-2.3,0.1-3.4,0.2c-0.2,0-0.5,0-0.7,0.1
		c-0.4,0-0.9,0.1-1.3,0.1c-0.2,0-0.5,0-0.7,0.1c-0.5,0-0.9,0.1-1.3,0.1c-0.3,0-0.5,0-0.7,0.1c-4.2,0.2-8,0.3-11.2,0.3
		c-3.4,0-6.2-0.1-8-0.4c-2.2-0.3-3.2-0.7-3.3-1.5c-0.1-0.6-0.3-2.2,15.4-5.4c2.6-0.5,5.5-1.1,8.5-1.6c0.1,0,0.1,0,0.1,0
		c0,0.3,0.1,0.5,0.1,0.7c-0.1,0-0.1,0-0.2,0c-3,0.5-5.8,1-8.4,1.5c-14.9,3-14.9,4.5-14.9,4.6c0,0.1,0.3,1.2,10.6,1.2
		c3.5,0,7.8-0.1,12.4-0.4c0.3,0,0.7-0.1,1.1-0.1c0.1,0,0.1,0,0.1,0c0.3,0,0.5,0,0.7-0.1c0.5,0,0.9-0.1,1.3-0.1c0.2,0,0.4,0,0.7-0.1
		c0.5,0,0.9-0.1,1.4-0.1c0.3,0,0.7-0.1,1.1-0.1c0.5,0,0.9-0.1,1.3-0.1c0.1,0,0.3,0,0.4,0c0.2,0,0.3,0,0.5-0.1
		c1.9-0.1,3.9-0.3,5.9-0.5c0.1,0,0.2,0,0.3,0c0.1,0,0.1,0,0.1,0c0.3,0,0.5-0.1,0.7-0.1c0.4-0.1,0.7-0.1,1.1-0.1c0.1,0,0.3,0,0.4-0.1
		c4.1-0.4,8.4-0.8,12.8-1.3c4.3-0.5,8.6-1,12.7-1.6c0.1,0,0.1,0,0.2,0l0,0c0.7-0.1,1.3-0.2,1.9-0.3c0.1,0,0.1,0,0.1,0
		c1.9-0.3,3.9-0.5,5.7-0.8l0,0c1.5-0.2,2.9-0.5,4.3-0.7l0,0c0.3-0.1,0.6-0.1,0.9-0.1l0,0c0.4-0.1,0.8-0.1,1.1-0.2
		c0.3-0.1,0.7-0.1,1.1-0.2h0.1c3.2-0.5,6.2-1.1,8.9-1.7c14.8-3,14.8-4.5,14.8-4.6c0-0.1-0.2-1.1-8.9-1.2c0.1-0.2,0.1-0.5,0.1-0.7
		l0,0c9.3,0.1,9.5,1.3,9.5,1.8C130,82,130.2,83.6,114.5,86.9z"/>
</g>
<g>
	<path class="st3" d="M64.5,93.4c-0.1-0.1-0.3-0.2-0.5-0.3c-0.8,0.1-1.5,0.1-2.3,0.2c0.1,0,0.1,0.1,0.1,0.1c0.2,0.2,0.4,0.3,0.5,0.5
		c0.8-0.1,1.6-0.1,2.3-0.2C64.7,93.7,64.6,93.5,64.5,93.4z"/>
	<path class="st3" d="M92.5,90.5C92.5,90.5,92.5,90.4,92.5,90.5v-0.1c-0.1-0.1-0.1-0.1-0.1-0.2c-0.1-0.1-0.1-0.2-0.2-0.3
		c-0.7,0.1-1.4,0.2-2.1,0.3l0,0c0.1,0,0.1,0.1,0.2,0.1c0.1,0.1,0.2,0.1,0.3,0.3l0,0l0,0l0,0c0.1,0.1,0.2,0.1,0.2,0.2
		C91.3,90.7,91.9,90.6,92.5,90.5C92.5,90.5,92.5,90.5,92.5,90.5z"/>
</g>
<g>
	<path class="st3" d="M48.1,94.9c0.1-0.3,0.2-0.5,0.3-0.7c-0.7,0.1-1.4,0.1-2.1,0.1c-0.1,0.3-0.2,0.5-0.3,0.7
		C46.7,95.1,47.4,95.1,48.1,94.9C48.1,95,48.1,95,48.1,94.9z"/>
	<path class="st3" d="M55.5,94.5c-0.5,0-0.9,0.1-1.4,0.1c-1.1,0.1-2.3,0.1-3.4,0.2c-0.2,0-0.5,0-0.7,0.1c-0.1-0.1-0.1-0.3-0.1-0.5
		c0-0.1-0.1-0.2-0.1-0.3c0.3,0,0.5,0,0.7-0.1c0.2,0,0.4,0,0.7-0.1c0.5,0,0.9-0.1,1.4-0.1c0.3,0,0.7-0.1,1.1-0.1
		c0.5,0,0.9-0.1,1.3-0.1c0.1,0,0.3,0,0.4,0C55.4,94.1,55.5,94.3,55.5,94.5z"/>
	<path class="st3" d="M102.6,89c-1.5,0.3-3.1,0.5-4.7,0.7l0,0c0.1-0.3,0.1-0.5,0.1-0.7l0,0l0,0c1.5-0.2,2.9-0.5,4.3-0.7l0,0
		c0,0,0,0,0,0.1C102.4,88.6,102.4,88.8,102.6,89C102.6,88.9,102.6,88.9,102.6,89z"/>
	<path class="st3" d="M105.5,88.1c0,0.1-0.1,0.3-0.1,0.3c0,0,0,0-0.1,0c-0.7,0.1-1.5,0.3-2.3,0.4c0.1-0.1,0.1-0.2,0-0.3v-0.1
		c0-0.1,0-0.1,0-0.1c0,0,0,0,0-0.1c0-0.1,0-0.1,0-0.2l0,0c0.4-0.1,0.8-0.1,1.1-0.2c0.3-0.1,0.7-0.1,1.1-0.2h0.1
		C105.5,87.9,105.5,88,105.5,88.1z"/>
</g>
<path d="M57.3,51.6c0,1.3-1.1,2.4-2.4,2.4c-1.3,0-2.3-0.9-2.4-2.1c0-0.1,0-0.1,0-0.2c0-0.9,0.5-1.7,1.3-2.1c0.3-0.2,0.7-0.3,1.1-0.3
	C56.2,49.3,57.3,50.3,57.3,51.6z"/>
<g>
	<path class="st6" d="M141.2,79.6c0,0.2,0,0.3,0,0.5c-0.3,0.1-0.6,0.2-0.9,0.3c-6.8,2.3-11.6,8.8-11.6,16.3c0,5.8,2.8,10.8,7.2,13.9
		c0.1,0.1,0.1,0.1,0.2,0.1c-0.1,0.1-0.1,0.3-0.2,0.5c-0.1-0.1-0.1-0.1-0.2-0.1c-4.5-3.2-7.5-8.5-7.5-14.4c0-7.8,5.1-14.4,12.1-16.8
		C140.5,79.8,140.8,79.7,141.2,79.6z"/>
</g>
<g class="st7">
	<path d="M36.9,69.4l-0.6-0.3L37,68c0.3-0.4,0.4-0.8,0.3-1.2c-0.1-0.4-0.3-0.7-0.7-1c-0.4-0.3-0.8-0.3-1.1-0.2
		c-0.3,0.1-0.6,0.4-0.9,0.8l-0.7,1.2l-0.6-0.3l0.9-1.4c0.3-0.5,0.7-0.8,1.2-1c0.5-0.1,1.1-0.1,1.7,0.3s0.9,0.8,0.9,1.5
		c0.1,0.5-0.1,1.1-0.3,1.5L36.9,69.4z"/>
</g>
<g class="st7">
	<path d="M40.2,60.8c-0.3,0.5-0.3,0.9,0.1,1.1c0.1,0.1,0.3,0.1,0.5,0.1c0.2-0.1,0.3-0.1,0.4-0.3c0.2-0.3,0.1-0.6-0.1-0.9l0.5-0.5
		c0.5,0.5,0.5,1.1,0.1,1.7c-0.2,0.3-0.5,0.5-0.8,0.7c-0.3,0.1-0.7,0.1-1-0.1c-0.2-0.1-0.4-0.3-0.5-0.5c-0.1-0.2-0.1-0.5,0.1-0.7l0,0
		c-0.1,0.1-0.3,0.3-0.5,0.3c-0.2,0-0.4-0.1-0.6-0.1c-0.3-0.2-0.5-0.5-0.5-0.7c0-0.3,0.1-0.6,0.3-0.9c0.2-0.3,0.4-0.5,0.6-0.6
		c0.3-0.1,0.5-0.1,0.8-0.1l-0.2,0.7c-0.3-0.1-0.5,0-0.7,0.3c-0.1,0.1-0.1,0.3-0.1,0.5c0,0.1,0.1,0.3,0.3,0.3c0.2,0.1,0.4,0.1,0.5,0
		c0.1-0.1,0.2-0.2,0.3-0.4l0.1-0.1l0.5,0.3L40.2,60.8z"/>
</g>
<g class="st7">
	<path d="M42.4,69.3l0.3-0.1l0.2,0.7c0.5-0.1,1.1,0,1.6,0.3c0.5,0.3,0.9,0.8,1,1.3s0,1.1-0.3,1.7c-0.3,0.5-0.7,0.7-1.1,0.9l0.2,0.7
		L44,75l-0.2-0.7c-0.5,0.1-1,0-1.5-0.3s-0.9-0.8-1-1.3s0-1.1,0.3-1.7c0.3-0.5,0.6-0.7,1-0.9L42.4,69.3z M43.6,73.5l-0.8-2.8
		c-0.3,0.1-0.5,0.3-0.7,0.5c-0.2,0.3-0.3,0.7-0.2,1.1c0.1,0.4,0.3,0.7,0.7,0.9C42.9,73.5,43.2,73.6,43.6,73.5z M43.2,70.7l0.8,2.8
		c0.3-0.1,0.5-0.3,0.7-0.6c0.2-0.3,0.3-0.7,0.2-1.1c-0.1-0.4-0.3-0.7-0.7-0.9C43.8,70.7,43.5,70.6,43.2,70.7z"/>
</g>
<g class="st7">
	<path d="M48.6,67.7l-2-1.3l0.7-1.1c0.1-0.2,0.2-0.4,0.3-0.5c0-0.2-0.1-0.4-0.3-0.5c-0.3-0.2-0.6-0.1-0.9,0.4l-0.7,1.1l-0.5-0.3
		l0.7-1.2c0.5-0.9,1.1-1.1,1.8-0.7c0.3,0.1,0.4,0.3,0.5,0.6c0.1,0.3,0.1,0.5-0.1,0.8h2.1l-0.4,0.9l-2-0.1l-0.3,0.5l1.5,0.9
		L48.6,67.7z"/>
</g>
<ellipse class="st3" cx="67.8" cy="139.8" rx="1.5" ry="1.5"/>
<ellipse cx="68" cy="139.8" rx="0.7" ry="0.7"/>
<path class="st4" d="M103.2,86.5c0,0.4,0,0.8,0,1.2c0,0.1,0,0.3,0,0.5l0,0c-0.3,0.1-0.6,0.1-0.9,0.1l0,0
	c-4.9-8.4-9.8-16.8-14.6-25.2c0,0,0.1-0.1,0.1-0.1c0.3,0.1,0.7,0.3,1,0.5c0.4,0.2,0.8,0.4,1.2,0.7c0.2,0.1,0.5,0.3,0.7,0.4
	c0.1,0.1,0.3,0.2,0.5,0.3c0.2,0.1,0.3,0.3,0.5,0.3c0.9,0.7,1.9,1.4,2.7,2.2c0.3,0.3,0.6,0.5,0.9,0.8c0.1,0.1,0.3,0.3,0.4,0.4
	c0.1,0.1,0.1,0.1,0.1,0.1c0.2,0.2,0.3,0.3,0.5,0.5c0.2,0.3,0.5,0.5,0.7,0.7c0.1,0.2,0.3,0.4,0.5,0.6c0.3,0.5,0.7,0.9,1.1,1.5
	c0.2,0.3,0.4,0.6,0.6,0.9c0.1,0.3,0.3,0.5,0.5,0.7c0.2,0.3,0.4,0.7,0.5,1c0.1,0.3,0.3,0.6,0.5,0.9c0.1,0.3,0.3,0.6,0.4,0.9
	c0.4,0.9,0.7,1.9,1.1,2.8c0.1,0.3,0.2,0.6,0.3,0.9c0.1,0.3,0.1,0.5,0.2,0.8c0,0.1,0.1,0.3,0.1,0.4c0.3,1.1,0.5,2.3,0.5,3.5
	c0,0.1,0,0.3,0,0.4c0,0.2,0,0.3,0,0.5C103.2,86,103.2,86.2,103.2,86.5z"/>
<path class="st4" d="M65.4,62.9c-0.1,0.3-0.3,0.5-0.3,0.7c-2.8,4.8-5.6,9.7-8.4,14.5c-0.9,1.6-1.9,3.2-2.8,4.9
	c-0.6,1.1-1.2,2.1-1.8,3.1c-0.6,1-1.2,2.1-1.8,3.1c-0.1,0.1-0.2,0.3-0.3,0.4C48.6,79.7,54.3,67.9,65.4,62.9z"/>
<path class="st4" d="M91.9,109c-0.8,1.2-6.7,3.9-9.9,4.5c-3.6,0.7-7.2,0.7-10.9,0c-0.3-0.1-0.7-0.1-1.1-0.3c-0.1,0-0.3-0.1-0.4-0.1
	c-0.2-0.1-0.4-0.1-0.5-0.2c-0.7-0.2-1.5-0.5-2.3-0.8c-0.3-0.1-0.7-0.3-1-0.4c-1.2-0.5-2.3-1.1-3.1-1.5c-0.3-0.2-0.5-0.3-0.7-0.5
	c-0.1-0.1-0.3-0.2-0.3-0.3c-0.1-0.1-0.3-0.2-0.3-0.3c5.2,0,10.3-0.1,15.4-0.1C81.6,109.1,86.8,109.1,91.9,109z"/>
<path class="st0" d="M52.9,51.8c0,0.1,0,0.1,0,0.2c-4.8-0.1-15.3-4.2-20.2-5c3.1-0.5,4.5-0.5,6.8-0.9c-2.1-1.9-2.5-2.8-4.5-4.1
	c1.5,0.1,5-0.1,6.3,0c-0.9-1.3-1.9-3.3-3-5.5c2.9,2.9,13.2,9.6,15.9,13.1C53.4,50.1,52.9,50.9,52.9,51.8z"/>
<path class="st4" d="M80.2,53.4c-0.7-0.1-1.3-0.1-1.9-0.2c-0.3,0-0.5,0-0.7-0.1c-0.1,0-0.3,0-0.4,0c-1.4-0.1-2.8,0-4.2,0.2
	c0,0,0-0.1,0.1-0.2c0.1-0.2,0.3-0.5,0.5-1c0.1-0.1,0.1-0.3,0.2-0.4c0.1-0.1,0.1-0.1,0.1-0.2c0.1-0.1,0.1-0.1,0.1-0.3
	c0.1-0.1,0.1-0.1,0.1-0.3c0.1-0.2,0.2-0.3,0.3-0.5c0.1-0.1,0.1-0.3,0.2-0.4c0.1-0.2,0.3-0.5,0.4-0.7c0.1-0.1,0.1-0.2,0.2-0.3
	c0.1-0.1,0.1-0.2,0.2-0.3c0.2-0.3,0.3-0.6,0.5-0.9c0.1-0.1,0.1-0.1,0.1-0.2c0.1-0.1,0.1-0.1,0.1-0.2c0.1-0.1,0.1-0.1,0.1-0.2
	c0.1-0.1,0.1-0.2,0.2-0.3c0.7,1.1,1.2,2.1,1.9,3.1C78.9,51.2,79.5,52.3,80.2,53.4z"/>
<path class="st4" d="M85.1,61.8c-5.8-1.9-11.4-1.9-17.2,0c0.5-0.9,0.9-1.7,1.4-2.4l0.1-0.1c0,0,0.1,0,0.1-0.1
	c0.1-0.1,0.1-0.1,0.2-0.1c0.1,0,0.1,0,0.1-0.1h0.1c2.2-0.5,4.5-0.7,6.8-0.7c2.1,0,4.2,0.3,6.3,0.7c0.5,0.1,0.8,0.3,1,0.7
	C84.3,60.5,84.7,61.1,85.1,61.8z"/>
<path class="st4" d="M49,107.5h-7.5c1.3-2.2,2.5-4.3,3.7-6.5C46.2,103.3,47.5,105.4,49,107.5z"/>
<path class="st4" d="M58.5,107.5c-0.7,0-1.3,0-2,0c-0.1,0-0.3,0-0.5,0c0,0-0.1,0-0.1,0c0,0-0.1,0-0.1-0.1c0,0-0.1,0-0.1-0.1
	c-0.1,0-0.1-0.1-0.1-0.1c-0.1-0.1-0.1-0.1-0.1-0.1c-1.6-1.7-3-3.5-4.1-5.6c-1.1-1.9-1.9-3.9-2.6-6c0-0.1,0-0.1-0.1-0.2
	c0-0.1,0-0.3,0-0.3c0.4,0,0.9-0.1,1.3-0.1c0.2,0,0.5,0,0.7-0.1c0.1,0.3,0.1,0.5,0.2,0.7v0.1c0,0.1,0.1,0.1,0.1,0.2
	c0,0.1,0,0.1,0.1,0.1c0.1,0.3,0.2,0.5,0.3,0.8c0.1,0.2,0.1,0.4,0.3,0.7c0,0.1,0,0.1,0.1,0.1l0,0c0.1,0.1,0.1,0.3,0.2,0.5
	c0.1,0.3,0.3,0.5,0.4,0.9c0.1,0.3,0.3,0.5,0.4,0.9c0.3,0.6,0.6,1.2,1,1.7l0.1,0.1c0.2,0.3,0.3,0.6,0.6,0.9c0.1,0.3,0.3,0.5,0.5,0.7
	c0.1,0.2,0.3,0.3,0.3,0.5c0.3,0.3,0.5,0.7,0.8,1c0.1,0.1,0.2,0.3,0.3,0.4c0.4,0.5,0.8,0.9,1.3,1.3c0.1,0.1,0.1,0.1,0.2,0.2
	C57.9,107,58.2,107.3,58.5,107.5z"/>
<path class="st4" d="M104.1,95.5c-1.2,3.9-3.1,7.5-5.8,10.6c-0.3,0.4-0.7,0.8-1.1,1.2c-0.1,0.1-0.3,0.2-0.4,0.3c-0.7,0-1.5,0-2.2,0
	c0,0,0-0.1-0.1-0.1c4.3-4,7.2-8.8,8.4-14.7c0.1,0.2,0.3,0.3,0.3,0.5c0.3,0.4,0.5,0.9,0.7,1.3C104.2,94.7,104.2,95.1,104.1,95.5z"/>
<path class="st4" d="M111.5,107.5h-7.7c0.4-0.5,0.7-1.1,1.1-1.6c0.3-0.5,0.7-1.1,1-1.6c0.7-1.1,1.2-2.2,1.7-3.4
	C109,103,110.3,105.2,111.5,107.5z"/>
<path class="st8" d="M120.4,79.6L120.4,79.6c0,0.3,0,0.5-0.1,0.7c-0.3,1.4-1.6,2.5-3.1,2.5c-1.5,0-2.8-1.1-3.1-2.5
	c-0.1-0.2-0.1-0.5-0.1-0.7v-0.1c0-1.8,1.5-3.2,3.2-3.2C118.9,76.4,120.4,77.8,120.4,79.6z"/>
<path class="st9" d="M140.5,86.2c0,8.6-1.7,16.9-4.7,24.3c-4.3-3.1-7.2-8.2-7.2-13.9c0-7.6,4.9-14,11.6-16.3
	C140.4,82.4,140.5,84.3,140.5,86.2z"/>
<g class="st7">
	<path d="M94.9,21.9L93,21.4l-2.5-2.1l-0.2-0.1l-0.3,1.4l-1.2-0.3l0.7-3.5l4.7,1.1c0.3,0.1,0.6,0.2,0.8,0.4c0.2,0.2,0.3,0.4,0.3,0.6
		l-0.1,0.7c-0.1,0.5-0.5,0.6-1.4,0.4l-1.5-0.3L94.9,21.9z M93.9,19.5l0.1-0.7L90.5,18l-0.1,0.7L93.9,19.5z"/>
</g>
<g class="st7">
	<path d="M84.7,17.8c0,0.5-0.4,0.9-1,1.2c-0.7,0.3-1.4,0.5-2.3,0.4c-0.9-0.1-1.7-0.3-2.3-0.7c-0.6-0.4-0.9-0.9-0.9-1.3
		c0-0.5,0.4-0.9,1-1.3c0.7-0.3,1.4-0.5,2.3-0.4c0.9,0.1,1.6,0.3,2.3,0.7C84.4,16.9,84.7,17.3,84.7,17.8z M83.4,17.8
		c0-0.3-0.1-0.6-0.5-0.9c-0.4-0.3-0.8-0.4-1.4-0.4s-1,0.1-1.4,0.3c-0.4,0.2-0.6,0.5-0.7,0.7c0,0.3,0.1,0.6,0.5,0.8
		c0.4,0.3,0.9,0.4,1.4,0.4c0.5,0,1-0.1,1.4-0.3S83.4,18.1,83.4,17.8z"/>
</g>
<g class="st7">
	<path d="M73.3,19.2l-5,0.5L68,16.1l5-0.5l0.1,0.7l-3.7,0.3l0.1,0.7l3.7-0.3l0.1,0.7l-3.7,0.3l0.1,0.7l3.7-0.3L73.3,19.2z"/>
</g>
<g class="st7">
	<path d="M63.2,19.6c0.1,0.5-0.3,0.8-1.1,1l-4.9,1.3l-0.8-3.5l4.9-1.3c0.3-0.1,0.7-0.1,0.9,0s0.4,0.2,0.5,0.4L63.2,19.6z M62,19.9
		l-0.5-2.1l-3.7,0.9l0.5,2.1L62,19.9z"/>
</g>
<path id="SVGID_x5F_1_x5F__2_" class="st5" d="M59.5,155.2C21.4,146.1-2.1,107.8,7,69.7S54.3,8,92.5,17.1
	c38.1,9.1,61.6,47.4,52.5,85.6C135.9,140.8,97.6,164.4,59.5,155.2z"/>
<path id="SVGID_x5F_2_x5F__2_" class="st5" d="M146.9,86.2c0,39.2-31.8,71-71,71S5,125.4,5,86.2s31.8-71,71-71S146.9,47,146.9,86.2z
	"/>
<g>
	<path d="M24.3,131.1c0.3-0.3,0.7-0.4,1.1-0.4c0.4,0,0.8,0.2,1.1,0.5c0.3,0.3,0.4,0.7,0.4,1.1c0,0.4-0.2,0.8-0.5,1.1
		c-0.3,0.3-0.7,0.4-1.1,0.4c-0.4,0-0.8-0.2-1.1-0.5c-0.3-0.3-0.4-0.7-0.4-1.1C23.8,131.7,24,131.4,24.3,131.1z M24.7,131.5
		c-0.2,0.2-0.3,0.4-0.3,0.7c0,0.3,0.1,0.5,0.3,0.7s0.4,0.3,0.7,0.3c0.3,0,0.5-0.1,0.7-0.3c0.2-0.2,0.3-0.4,0.3-0.7
		c0-0.3-0.1-0.5-0.3-0.7s-0.4-0.3-0.7-0.3C25.1,131.3,24.9,131.3,24.7,131.5z"/>
	<path d="M22.8,127l0.5,0.7l-0.1,1.8l0.1,0.1l0.9-0.7l0.4,0.5l-2.3,1.9l-1.4-1.8c-0.1-0.1-0.1-0.3-0.1-0.5c0-0.2,0.1-0.3,0.2-0.4
		l0.5-0.4c0.3-0.3,0.6-0.2,0.8,0.1l0.5,0.6L22.8,127z M21.9,128.6l-0.5,0.4l1.1,1.3l0.5-0.4L21.9,128.6z"/>
	<path d="M20.5,123.8l0.3,0.5l-0.9,0.7l1,1.5l0.9-0.7l0.3,0.5l-1.9,1.4c-0.1,0.1-0.3,0.1-0.5,0.1c-0.1,0-0.3-0.1-0.4-0.3l-1-1.5
		c-0.1-0.1-0.1-0.3-0.1-0.5s0.1-0.3,0.2-0.4L20.5,123.8z M19.5,125.4l-0.5,0.3l1,1.5l0.5-0.3L19.5,125.4z"/>
	<path d="M18.5,120.7l1.2,1.9c0.2,0.3,0.1,0.6-0.2,0.8l-1.5,0.9c-0.1,0.1-0.3,0.1-0.5,0.1c-0.1-0.1-0.3-0.1-0.4-0.3l-1.2-1.9
		l0.5-0.3l1.2,1.9l1.5-0.9l-1.2-1.9L18.5,120.7z"/>
	<path d="M16.9,117.8l1.1,2.1l-2.6,1.5l-0.3-0.5l2.1-1.1l-0.9-1.5L16.9,117.8z"/>
	<path d="M15.5,114.9l1.1,2.1l-2.7,1.3l-1.1-2.1l0.5-0.3l0.8,1.6l0.5-0.3l-0.8-1.6l0.5-0.3l0.8,1.6l0.5-0.3l-0.8-1.6L15.5,114.9z"/>
</g>
<g>
	<path d="M138.3,112.2c-0.3-0.1-0.5-0.4-0.3-0.7l0.9-2.2l2.7,1.1l-0.9,2.2c-0.1,0.1-0.1,0.3-0.3,0.3c-0.1,0.1-0.3,0.1-0.5,0
		L138.3,112.2z M138.5,111.6l1.7,0.7l0.7-1.7l-1.7-0.7L138.5,111.6z"/>
	<path d="M136.4,115l1-2.1l2.7,1.2l-1,2.1l-0.5-0.3l0.7-1.6l-0.5-0.3l-0.7,1.6l-0.5-0.3l0.7-1.6l-0.5-0.3l-0.7,1.6L136.4,115z"/>
	<path d="M134.7,118.4l1.1-2c0.2-0.3,0.5-0.4,0.8-0.3l1.6,0.8c0.1,0.1,0.3,0.2,0.3,0.3c0.1,0.1,0.1,0.3-0.1,0.5l-1.1,2l-0.5-0.3
		l1.1-2l-1.6-0.8l-1.1,2L134.7,118.4z"/>
	<path d="M133.1,121.1l1.2-2.1l2.5,1.5l-1.2,2.1l-0.5-0.3l0.9-1.5l-0.5-0.3l-0.9,1.5l-0.5-0.3l0.9-1.5l-0.5-0.3l-0.9,1.5
		L133.1,121.1z"/>
	<path d="M130.9,124.4l0.2-0.3l2.7-0.6l-1.6-1.1l0.3-0.5l2.5,1.7l-0.2,0.3l-2.7,0.6l1.6,1.1l-0.3,0.5L130.9,124.4z"/>
	<path d="M130.5,129.1l0.7-0.9l-1.9-1.4l0.3-0.5l1.9,1.4l0.7-0.9l0.5,0.3l-1.8,2.3L130.5,129.1z"/>
	<path d="M126.1,130.6l0.6-0.7l1.8-0.3l0.1-0.1l-0.9-0.7l0.4-0.5l2.3,1.9l-1.5,1.7c-0.1,0.1-0.3,0.2-0.4,0.2s-0.3,0-0.4-0.1
		l-0.5-0.4c-0.3-0.3-0.3-0.5-0.1-0.9l0.5-0.5L126.1,130.6z M128,131.2l0.5,0.4l1.1-1.3l-0.5-0.4L128,131.2z"/>
	<path d="M123.6,133.3l0.4-0.4l0.9,0.8l1.2-1.3l-0.9-0.8l0.4-0.4l1.7,1.6c0.1,0.1,0.2,0.3,0.2,0.4s-0.1,0.3-0.2,0.4l-1.2,1.3
		c-0.1,0.1-0.3,0.1-0.4,0.1s-0.3-0.1-0.4-0.1L123.6,133.3z M125.2,134.1l0.4,0.4l1.2-1.3l-0.4-0.4L125.2,134.1z"/>
	<path d="M121,135.7l1.7-1.6l2.1,2.1l-0.4,0.4l-1.6-1.7l-1.3,1.2L121,135.7z"/>
	<path d="M120,136.6l0.5-0.4l1.9,2.2l-0.5,0.4L120,136.6z"/>
	<path d="M117.1,139l2.3-1.9l0.2,0.2l-0.2,2.8l1.5-1.2l0.4,0.5l-2.3,1.9l-0.2-0.2l0.2-2.8l-1.5,1.2L117.1,139z"/>
	<path d="M114.5,141l1.9-1.4l1.7,2.4l-1.9,1.4l-0.3-0.5l1.4-1.1l-0.3-0.5l-1.5,1.1l-0.3-0.5l1.4-1.1l-0.3-0.5l-1.5,1.1L114.5,141z"
		/>
	<path d="M111.5,143.7c-0.2-0.3-0.1-0.6,0.2-0.8l2-1.3l1.6,2.5l-2,1.3c-0.1,0.1-0.3,0.1-0.5,0.1c-0.1,0-0.3-0.1-0.4-0.3L111.5,143.7
		z M112,143.4l1,1.5l1.5-1l-1-1.5L112,143.4z"/>
</g>
</svg>
